<svg xmlns="http://www.w3.org/2000/svg" width="805" height="600"><rect width="805" height="600" x="0" y="0" fill="#FFFFFF" id="backgorund"/><g transform="translate(20,20)" id="viz"><g id="nodes"><g transform="translate(383.5,281)"><path id="p_945.5" d="M-5.143516556418883e-14,280A280,280,0,1,1,5.143516556418883e-14,-280A280,280,0,1,1,-5.143516556418883e-14,280Z" fill="none" stroke="#ccc"/></g><g transform="translate(383.5,281)" id="Bpk-Bildagentur"><path id="p_943.5766238739595" d="M-5.108184710174204e-14,278.0766238739595A278.0766238739595,278.0766238739595,0,1,1,5.108184710174204e-14,-278.0766238739595A278.0766238739595,278.0766238739595,0,1,1,-5.108184710174204e-14,278.0766238739595Z" fill="none" stroke="#ccc"/></g><g transform="translate(306.82594946795894,281)" id="Kraków"><path id="p_788.3051466838368" d="M-3.664373405503626e-14,199.47919721587786A199.47919721587786,199.47919721587786,0,1,1,3.664373405503626e-14,-199.47919721587786A199.47919721587786,199.47919721587786,0,1,1,-3.664373405503626e-14,199.47919721587786Z" fill="none" stroke="#ccc"/></g><g transform="translate(583.9408852788981,281)" id="Berlin"><path id="p_941.653247747919" d="M-1.3908135353035575e-14,75.71236246902079A75.71236246902079,75.71236246902079,0,1,1,1.3908135353035575e-14,-75.71236246902079A75.71236246902079,75.71236246902079,0,1,1,-1.3908135353035575e-14,75.71236246902079Z" fill="none" stroke="#ccc"/></g><g transform="translate(523.6201860956019,376.8951863309966)" id="City of Brussels"><path id="p_937.16896921408" d="M-6.54945947758194e-15,35.653596787481526A35.653596787481526,35.653596787481526,0,1,1,6.54945947758194e-15,-35.653596787481526A35.653596787481526,35.653596787481526,0,1,1,-6.54945947758194e-15,35.653596787481526Z" fill="none" stroke="#ccc"/></g><g transform="translate(523.6201860956019,185.1048136690034)" id="Prussia"><path id="p_745.3785965520868" d="M-6.54945947758194e-15,35.653596787481526A35.653596787481526,35.653596787481526,0,1,1,6.54945947758194e-15,-35.653596787481526A35.653596787481526,35.653596787481526,0,1,1,-6.54945947758194e-15,35.653596787481526Z" fill="none" stroke="#ccc"/></g><g transform="translate(210.46079036244458,281)" id="1870-01-01T00:00:00Z"><path id="p_593.6514523467675" d="M-1.8588423045405435e-14,101.19066198432299A101.19066198432299,101.19066198432299,0,1,1,1.8588423045405435e-14,-101.19066198432299A101.19066198432299,101.19066198432299,0,1,1,-1.8588423045405435e-14,101.19066198432299Z" fill="#1f77b4" stroke="none"/></g><g transform="translate(408.9782995153022,281)" id="1880-01-01T00:00:00Z"><path id="p_786.3817705577962" d="M-1.7525333315960637e-14,95.40347104249409A95.40347104249409,95.40347104249409,0,1,1,1.7525333315960637e-14,-95.40347104249409A95.40347104249409,95.40347104249409,0,1,1,-1.7525333315960637e-14,95.40347104249409Z" fill="#ff7f0e" stroke="none"/></g><g transform="translate(549.2489765544369,260.97061715923036)" id="1895-01-01T00:00:00Z"><path id="p_844.9498143751083" d="M-6.196141015135143e-15,33.73022066144099A33.73022066144099,33.73022066144099,0,1,1,6.196141015135143e-15,-33.73022066144099A33.73022066144099,33.73022066144099,0,1,1,-6.196141015135143e-15,33.73022066144099Z" fill="#d62728" stroke="none"/></g><g transform="translate(618.6327940033593,260.97061715923036)" id="1889-01-01T00:00:00Z"><path id="p_914.3336318240307" d="M-6.196141015135143e-15,33.73022066144099A33.73022066144099,33.73022066144099,0,1,1,6.196141015135143e-15,-33.73022066144099A33.73022066144099,33.73022066144099,0,1,1,-6.196141015135143e-15,33.73022066144099Z" fill="#9467bd" stroke="none"/></g><g transform="translate(583.9408852788981,321.0587656815393)" id="1881-01-01T00:00:00Z"><path id="p_939.7298716218784" d="M-6.196141015135143e-15,33.73022066144099A33.73022066144099,33.73022066144099,0,1,1,6.196141015135143e-15,-33.73022066144099A33.73022066144099,33.73022066144099,0,1,1,-6.196141015135143e-15,33.73022066144099Z" fill="#8c564b" stroke="none"/></g><g transform="translate(523.6201860956019,376.8951863309966)" id="1873-01-01T00:00:00Z"><path id="p_935.2455930880394" d="M-6.196141015135143e-15,33.73022066144099A33.73022066144099,33.73022066144099,0,1,1,6.196141015135143e-15,-33.73022066144099A33.73022066144099,33.73022066144099,0,1,1,-6.196141015135143e-15,33.73022066144099Z" fill="#2ca02c" stroke="none"/></g><g transform="translate(523.6201860956019,185.1048136690034)" id="1910-01-01T00:00:00Z"><path id="p_743.4552204260463" d="M-6.196141015135143e-15,33.73022066144099A33.73022066144099,33.73022066144099,0,1,1,6.196141015135143e-15,-33.73022066144099A33.73022066144099,33.73022066144099,0,1,1,-6.196141015135143e-15,33.73022066144099Z" fill="#e377c2" stroke="none"/></g></g><g id="labels"><g transform="translate(210.46079036244458,281)"><text text-anchor="middle" dominant-baseline="text-before-edge" transform="translate(0,-5.5)"><tspan x="0" y="0" dy="0" style="font-family: Arial, sans-serif; font-size: 10px; fill: black; font-weight: bold;">Ignacy Krieger</tspan></text></g><g transform="translate(408.9782995153022,281)"><text text-anchor="middle" dominant-baseline="text-before-edge" transform="translate(0,-5.5)"><tspan x="0" y="0" dy="0" style="font-family: Arial, sans-serif; font-size: 10px; fill: black; font-weight: bold;">Ignacy Krieger</tspan></text></g><g transform="translate(549.2489765544369,260.97061715923036)"><text text-anchor="middle" dominant-baseline="text-before-edge" transform="translate(0,-5.5)"><tspan x="0" y="0" dy="0" style="font-family: Arial, sans-serif; font-size: 10px; fill: black; font-weight: bold;">Adolf Halwas</tspan></text></g><g transform="translate(618.6327940033593,260.97061715923036)"><text text-anchor="middle" dominant-baseline="text-before-edge" transform="translate(0,-5.5)"><tspan x="0" y="0" dy="0" style="font-family: Arial, sans-serif; font-size: 10px; fill: black; font-weight: bold;">Jakob Baruch</tspan></text></g><g transform="translate(583.9408852788981,321.0587656815393)"><text text-anchor="middle" dominant-baseline="text-before-edge" transform="translate(0,-5.5)"><tspan x="0" y="0" dy="0" style="font-family: Arial, sans-serif; font-size: 10px; fill: black; font-weight: bold;">Jacob Reichard</tspan></text></g><g transform="translate(523.6201860956019,376.8951863309966)"><text text-anchor="middle" dominant-baseline="text-before-edge" transform="translate(0,-5.5)"><tspan x="0" y="0" dy="0" style="font-family: Arial, sans-serif; font-size: 10px; fill: black; font-weight: bold;">Julian Ganz</tspan></text></g><g transform="translate(523.6201860956019,185.1048136690034)"><text text-anchor="middle" dominant-baseline="text-before-edge" transform="translate(0,-5.5)"><tspan x="0" y="0" dy="0" style="font-family: Arial, sans-serif; font-size: 10px; fill: black; font-weight: bold;">Fritz Krauskopf</tspan></text></g></g></g></svg>